<svg xmlns="http://www.w3.org/2000/svg" version="1.1" xmlns:xlink="http://www.w3.org/1999/xlink" xmlns:svgjs="http://svgjs.dev/svgjs" width="1000" height="1000"><g clip-path="url(#SvgjsClipPath2318)"><rect width="1000" height="1000" fill="#171717"></rect><g transform="matrix(35.714285714285715,0,0,35.714285714285715,0,0)"><svg xmlns="http://www.w3.org/2000/svg" version="1.1" xmlns:xlink="http://www.w3.org/1999/xlink" xmlns:svgjs="http://svgjs.dev/svgjs" width="28" height="28"><svg width="28" height="28" viewBox="0 0 28 28" fill="none" xmlns="http://www.w3.org/2000/svg">
<path fill-rule="evenodd" clip-rule="evenodd" d="M26.0859 11.5837C26.4078 11.8927 26.6657 12.2622 26.8449 12.671C27.024 13.0797 27.1208 13.5198 27.1298 13.966C27.1389 14.4122 27.0599 14.8558 26.8975 15.2714C26.7351 15.6871 26.4923 16.0667 26.1832 16.3886L22.4167 20.3092C21.9227 20.8232 21.2796 21.1687 20.5783 21.297C19.8771 21.4252 19.1533 21.3297 18.5093 21.0238C17.8654 20.718 17.3339 20.2174 16.9902 19.5928C16.6465 18.9683 16.508 18.2514 16.5942 17.5438L15.2452 16.2484L7.17903 25.9465C6.84557 26.347 6.43322 26.6745 5.96766 26.9087C5.50211 27.1429 4.99332 27.2787 4.47299 27.3077C3.95267 27.3366 3.43195 27.2582 2.94327 27.0772C2.45459 26.8961 2.00841 26.6164 1.63253 26.2555C1.25666 25.8945 0.959127 25.46 0.758478 24.9791C0.557829 24.4981 0.458358 23.981 0.466262 23.4599C0.474166 22.9388 0.589277 22.425 0.80442 21.9503C1.01956 21.4757 1.33013 21.0504 1.71679 20.701L11.0792 12.2477L9.73169 10.9536C9.02783 11.0687 8.30559 10.9595 7.66729 10.6413C7.02899 10.3231 6.50699 9.81216 6.17524 9.1808C5.8435 8.54943 5.71884 7.82969 5.81892 7.12354C5.919 6.41739 6.23875 5.76063 6.73286 5.24631L10.4979 1.32705C10.9919 0.812367 11.6353 0.466208 12.337 0.337639C13.0387 0.20907 13.7631 0.304613 14.4074 0.610727C15.0518 0.916841 15.5835 1.418 15.9271 2.04316C16.2707 2.66832 16.4088 3.38578 16.3219 4.09384L23.1844 10.6827C23.7047 10.5978 24.2376 10.6351 24.7409 10.7918C25.2443 10.9484 25.7043 11.22 26.0846 11.5851M12.1036 9.4646L17.9846 15.1122L20.8097 12.1717L14.9274 6.52278L12.1036 9.4646ZM24.2229 14.506C24.2847 14.4417 24.3334 14.3658 24.3659 14.2826C24.3985 14.1995 24.4143 14.1107 24.4126 14.0215C24.4108 13.9322 24.3915 13.8441 24.3557 13.7623C24.32 13.6805 24.2684 13.6065 24.2041 13.5446C24.1397 13.4828 24.0638 13.4341 23.9806 13.4016C23.8975 13.369 23.8088 13.3532 23.7195 13.3549C23.6302 13.3567 23.5422 13.376 23.4603 13.4118C23.3785 13.4475 23.3046 13.4991 23.2427 13.5634L19.4763 17.4854C19.4127 17.5494 19.3624 17.6254 19.3285 17.7091C19.2946 17.7927 19.2776 17.8822 19.2787 17.9724C19.2797 18.0627 19.2987 18.1518 19.3346 18.2346C19.3704 18.3174 19.4224 18.3922 19.4875 18.4547C19.5526 18.5172 19.6294 18.5661 19.7136 18.5986C19.7978 18.6311 19.8876 18.6465 19.9778 18.6439C20.068 18.6413 20.1568 18.6207 20.239 18.5834C20.3212 18.5461 20.3951 18.4929 20.4564 18.4267L24.2229 14.506ZM13.4397 4.14946C13.5034 4.08547 13.5536 4.00945 13.5875 3.92584C13.6215 3.84222 13.6384 3.75269 13.6374 3.66246C13.6363 3.57223 13.6173 3.48311 13.5815 3.4003C13.5456 3.3175 13.4936 3.24266 13.4285 3.18016C13.3635 3.11765 13.2866 3.06874 13.2024 3.03627C13.1182 3.0038 13.0284 2.98842 12.9382 2.99103C12.848 2.99364 12.7592 3.01418 12.677 3.05147C12.5949 3.08876 12.5209 3.14203 12.4596 3.20819L8.6932 7.1302C8.62957 7.19419 8.57933 7.27021 8.5454 7.35382C8.51147 7.43743 8.49453 7.52697 8.49557 7.6172C8.49662 7.70743 8.51562 7.79654 8.55147 7.87935C8.58732 7.96216 8.63931 8.037 8.70439 8.0995C8.76948 8.162 8.84636 8.21092 8.93055 8.24339C9.01474 8.27586 9.10455 8.29124 9.19475 8.28863C9.28495 8.28602 9.37372 8.26547 9.45589 8.22819C9.53807 8.1909 9.61199 8.13762 9.67335 8.07146L13.4397 4.14946ZM5.08842 24.208L13.0618 14.6232L12.7928 14.3636L3.53708 22.7182C3.43056 22.8184 3.34552 22.9391 3.28713 23.0731C3.22874 23.2071 3.19822 23.3516 3.19744 23.4978C3.19665 23.644 3.22561 23.7888 3.28256 23.9234C3.3395 24.0581 3.42324 24.1797 3.52868 24.281C3.63412 24.3822 3.75905 24.461 3.89589 24.5124C4.03272 24.5639 4.17859 24.587 4.32462 24.5803C4.47065 24.5736 4.61379 24.5372 4.74534 24.4735C4.87688 24.4097 4.99408 24.3198 5.0898 24.2093" fill="#FFC107"></path>
</svg></svg></g></g><defs><clipPath id="SvgjsClipPath2318"><rect width="1000" height="1000" x="0" y="0" rx="250" ry="250"></rect></clipPath></defs></svg>