<svg width="91" height="35" viewBox="0 0 91 35" fill="none" xmlns="http://www.w3.org/2000/svg">
<path d="M32.0553 28V8.4H37.82C39.7031 8.4 41.0867 8.86118 41.9706 9.78353C42.8737 10.6867 43.3253 11.9069 43.3253 13.4441V14.0782C43.3253 14.9237 43.1331 15.6731 42.7488 16.3265C42.3645 16.9798 41.8073 17.4986 41.0771 17.8829C42.0955 18.2096 42.8641 18.7476 43.3829 19.4971C43.921 20.2273 44.19 21.1112 44.19 22.1488V22.7829C44.19 24.3586 43.7288 25.6269 42.8065 26.5876C41.9033 27.5292 40.4814 28 38.5406 28H32.0553ZM37.82 10.7059H34.5629V16.9029H37.82C38.7808 16.9029 39.5014 16.6627 39.9818 16.1824C40.4814 15.6827 40.7312 15.0006 40.7312 14.1359V13.4441C40.7312 12.5986 40.4814 11.9357 39.9818 11.4553C39.5014 10.9557 38.7808 10.7059 37.82 10.7059ZM38.5406 19.2088H34.5629V25.7229H38.5406C39.559 25.7229 40.318 25.4635 40.8176 24.9447C41.3365 24.4259 41.5959 23.7053 41.5959 22.7829V22.0912C41.5959 21.2073 41.3365 20.5059 40.8176 19.9871C40.318 19.4682 39.559 19.2088 38.5406 19.2088ZM50.9048 10.2447H48.253V7.59294H50.9048V10.2447ZM50.7606 28H48.3971V13.7324H50.7606V28ZM64.5322 28V26.0112C63.6483 26.8567 62.8412 27.4524 62.111 27.7982C61.4001 28.1249 60.6602 28.2882 59.8916 28.2882C58.3736 28.2882 57.2014 27.7118 56.3751 26.5588C55.5681 25.4059 55.1646 23.7918 55.1646 21.7165V20.0447C55.1646 18.0271 55.6642 16.4225 56.6634 15.2312C57.6818 14.0398 59.1518 13.4441 61.0734 13.4441C61.6306 13.4441 62.1879 13.5018 62.7451 13.6171C63.3024 13.7324 63.8597 13.8957 64.4169 14.1071V6.67059H66.7804V28H64.5322ZM57.6146 21.7165C57.6146 23.2153 57.8451 24.3202 58.3063 25.0312C58.7867 25.7229 59.4977 26.0688 60.4393 26.0688C60.9965 26.0688 61.573 25.9343 62.1687 25.6653C62.7644 25.3771 63.5138 24.791 64.4169 23.9071V16.2976C63.8597 16.0478 63.3216 15.8749 62.8028 15.7788C62.284 15.6635 61.7748 15.6059 61.2751 15.6059C59.9685 15.6059 59.0269 15.9998 58.4504 16.7876C57.8932 17.5755 57.6146 18.6612 57.6146 20.0447V21.7165Z" fill="#EAEAEA"/>
<path d="M71.8437 24.5412V6.67059H74.2072V24.4259C74.2072 24.9447 74.2841 25.3386 74.4378 25.6076C74.6108 25.8575 74.947 25.9824 75.4466 25.9824H75.9078V28.1441H75.2449C73.9766 28.1441 73.0927 27.8078 72.5931 27.1353C72.0935 26.4627 71.8437 25.598 71.8437 24.5412ZM84.3437 29.4412C83.7288 31.1706 82.9697 32.4292 82.0666 33.2171C81.1827 34.0241 79.9433 34.4276 78.3484 34.4276V32.0929C79.0017 32.0737 79.5589 31.9873 80.0201 31.8335C80.5005 31.6798 80.9233 31.3627 81.2884 30.8824C81.6727 30.4212 82.0378 29.7294 82.3837 28.8071L82.6719 28.0865L77.5413 13.7324H79.9625L82.3548 20.6788L83.8248 25.1176L85.2372 20.6788L87.5719 13.7324H89.9066L84.3437 29.4412Z" fill="#FFC107"/>
<path fill-rule="evenodd" clip-rule="evenodd" d="M26.0859 16.5837C26.4078 16.8928 26.6657 17.2622 26.8449 17.671C27.024 18.0798 27.1208 18.5198 27.1298 18.966C27.1389 19.4122 27.0599 19.8558 26.8975 20.2715C26.7351 20.6872 26.4923 21.0668 26.1832 21.3886L22.4167 25.3093C21.9227 25.8232 21.2796 26.1688 20.5783 26.297C19.8771 26.4253 19.1533 26.3297 18.5093 26.0239C17.8654 25.718 17.3339 25.2174 16.9902 24.5928C16.6465 23.9683 16.508 23.2514 16.5942 22.5438L15.2452 21.2484L7.17903 30.9466C6.84557 31.347 6.43322 31.6746 5.96766 31.9087C5.50211 32.1429 4.99332 32.2787 4.47299 32.3077C3.95267 32.3367 3.43195 32.2582 2.94327 32.0772C2.45459 31.8962 2.00841 31.6165 1.63253 31.2555C1.25666 30.8945 0.959126 30.46 0.758478 29.9791C0.55783 29.4981 0.458357 28.981 0.466262 28.4599C0.474165 27.9389 0.589276 27.425 0.804421 26.9504C1.01956 26.4757 1.33014 26.0504 1.71679 25.701L11.0792 17.2477L9.73169 15.9536C9.02783 16.0688 8.30559 15.9595 7.66729 15.6413C7.02899 15.3232 6.50699 14.8122 6.17524 14.1808C5.8435 13.5495 5.71884 12.8297 5.81892 12.1236C5.919 11.4174 6.23875 10.7607 6.73286 10.2463L10.4979 6.32708C10.9919 5.8124 11.6353 5.46624 12.337 5.33767C13.0387 5.2091 13.7631 5.30464 14.4074 5.61076C15.0518 5.91687 15.5835 6.41803 15.9271 7.04319C16.2707 7.66835 16.4088 8.38581 16.3219 9.09387L23.1844 15.6827C23.7047 15.5978 24.2376 15.6352 24.7409 15.7918C25.2443 15.9484 25.7043 16.22 26.0846 16.5851M12.1036 14.4646L17.9846 20.1122L20.8097 17.1717L14.9274 11.5228L12.1036 14.4646ZM24.2229 19.5061C24.2847 19.4417 24.3334 19.3658 24.3659 19.2827C24.3985 19.1995 24.4143 19.1108 24.4126 19.0215C24.4108 18.9322 24.3915 18.8442 24.3557 18.7623C24.32 18.6805 24.2684 18.6066 24.2041 18.5447C24.1397 18.4828 24.0638 18.4342 23.9806 18.4016C23.8975 18.3691 23.8088 18.3532 23.7195 18.355C23.6302 18.3567 23.5422 18.376 23.4603 18.4118C23.3785 18.4476 23.3046 18.4991 23.2427 18.5635L19.4763 22.4855C19.4127 22.5494 19.3624 22.6255 19.3285 22.7091C19.2946 22.7927 19.2776 22.8822 19.2787 22.9725C19.2797 23.0627 19.2987 23.1518 19.3346 23.2346C19.3704 23.3174 19.4224 23.3923 19.4875 23.4548C19.5526 23.5173 19.6294 23.5662 19.7136 23.5986C19.7978 23.6311 19.8876 23.6465 19.9778 23.6439C20.068 23.6413 20.1568 23.6207 20.239 23.5834C20.3212 23.5462 20.3951 23.4929 20.4564 23.4267L24.2229 19.5061ZM13.4397 9.14949C13.5034 9.0855 13.5536 9.00948 13.5875 8.92587C13.6215 8.84225 13.6384 8.75272 13.6374 8.66249C13.6363 8.57226 13.6173 8.48314 13.5815 8.40033C13.5456 8.31753 13.4936 8.24269 13.4285 8.18019C13.3635 8.11768 13.2866 8.06877 13.2024 8.0363C13.1182 8.00383 13.0284 7.98845 12.9382 7.99106C12.848 7.99367 12.7592 8.01421 12.677 8.0515C12.5949 8.08879 12.5209 8.14206 12.4596 8.20822L8.6932 12.1302C8.62957 12.1942 8.57933 12.2702 8.5454 12.3538C8.51147 12.4375 8.49453 12.527 8.49557 12.6172C8.49662 12.7075 8.51562 12.7966 8.55147 12.8794C8.58732 12.9622 8.63931 13.037 8.70439 13.0995C8.76948 13.162 8.84636 13.2109 8.93055 13.2434C9.01474 13.2759 9.10455 13.2913 9.19475 13.2887C9.28495 13.2861 9.37372 13.2655 9.45589 13.2282C9.53807 13.1909 9.61199 13.1377 9.67335 13.0715L13.4397 9.14949ZM5.08842 29.208L13.0617 19.6232L12.7928 19.3636L3.53708 27.7183C3.43056 27.8184 3.34552 27.9391 3.28713 28.0731C3.22874 28.2072 3.19822 28.3517 3.19744 28.4978C3.19665 28.644 3.22561 28.7888 3.28256 28.9235C3.3395 29.0581 3.42324 29.1798 3.52868 29.281C3.63412 29.3823 3.75905 29.461 3.89589 29.5125C4.03272 29.5639 4.17859 29.587 4.32462 29.5803C4.47065 29.5736 4.61379 29.5373 4.74534 29.4735C4.87688 29.4097 4.99408 29.3199 5.0898 29.2094" fill="#FFC107"/>
<line x1="14.8235" y1="34.0664" x2="36" y2="34.0664" stroke="#FFC107" stroke-width="1.16129"/>
<line x1="16.9412" y1="31.9489" x2="33.8823" y2="31.9489" stroke="#FFC107" stroke-width="1.16129"/>
</svg>
