<svg width="25" height="22" viewBox="0 0 25 22" fill="none" xmlns="http://www.w3.org/2000/svg">
<path d="M12.1524 0.0498352C5.49814 0.0498352 0.103027 4.95723 0.103027 11.01C0.103027 17.0627 5.49814 21.9701 12.1524 21.9701C18.8067 21.9701 24.2018 17.0627 24.2018 11.01C24.2018 4.95723 18.8067 0.0498352 12.1524 0.0498352ZM18.1771 11.9233H13.1565V16.49C13.1565 16.9951 12.7067 17.4034 12.1524 17.4034C11.5981 17.4034 11.1483 16.9951 11.1483 16.49V11.9233H6.12772C5.57345 11.9233 5.1236 11.515 5.1236 11.01C5.1236 10.5049 5.57345 10.0966 6.12772 10.0966H11.1483V5.5299C11.1483 5.02482 11.5981 4.61655 12.1524 4.61655C12.7067 4.61655 13.1565 5.02482 13.1565 5.5299V10.0966H18.1771C18.7314 10.0966 19.1812 10.5049 19.1812 11.01C19.1812 11.515 18.7314 11.9233 18.1771 11.9233Z" fill="white"/>
</svg>
