<svg width="21" height="19" viewBox="0 0 21 19" fill="none" xmlns="http://www.w3.org/2000/svg">
<path d="M20.1853 3.19545C20.1853 3.83765 19.6244 4.42989 18.6792 4.90797C17.5378 5.48238 15.8355 5.8891 13.8822 6.01041C13.737 5.94619 13.5919 5.88554 13.4389 5.83202C11.8935 5.24334 9.83824 4.90797 7.63389 4.90797C7.30834 4.90797 6.99063 4.91511 6.67292 4.92938L6.62978 4.90797C5.6845 4.42989 5.1236 3.83765 5.1236 3.19545C5.1236 1.61851 8.4968 0.341255 12.6545 0.341255C16.8121 0.341255 20.1853 1.61851 20.1853 3.19545ZM6.4062 6.0889C6.80628 6.06392 7.21812 6.04965 7.63389 6.04965C10.0736 6.04965 12.2387 6.48848 13.6154 7.16992C14.5882 7.65157 15.1648 8.25095 15.1648 8.90385C15.1648 9.04656 15.1373 9.1857 15.0824 9.32128C14.902 9.79222 14.4156 10.2239 13.7096 10.5878C13.7057 10.5914 13.6978 10.5914 13.6939 10.595C13.6821 10.6021 13.6704 10.6057 13.6586 10.6128C12.2858 11.3049 10.0971 11.7545 7.63389 11.7545C5.29619 11.7545 3.20559 11.3513 1.82101 10.7163C1.74648 10.6842 1.67588 10.6485 1.60528 10.6128C0.66392 10.1383 0.103027 9.54605 0.103027 8.90385C0.103027 7.66227 2.19755 6.60265 5.1236 6.21377C5.53545 6.16025 5.96298 6.11744 6.4062 6.0889ZM16.4199 8.90385C16.4199 8.12251 16.0041 7.48032 15.4746 6.99867C16.5846 6.84169 17.6005 6.59195 18.4634 6.26728C19.1028 6.02468 19.699 5.72499 20.1853 5.35751V6.62049C20.1853 7.30907 19.5381 7.94413 18.4674 8.43648C17.8947 8.70049 17.1965 8.92526 16.4121 9.09651C16.416 9.03229 16.4199 8.97164 16.4199 8.90742V8.90385ZM15.1648 12.3289C15.1648 12.9711 14.6039 13.5633 13.6586 14.0414C13.588 14.0771 13.5174 14.1092 13.4429 14.1449C12.0622 14.7799 9.9716 15.1831 7.63389 15.1831C5.17067 15.1831 2.98201 14.7336 1.6092 14.0414C0.66392 13.5633 0.103027 12.9711 0.103027 12.3289V11.0659C0.593318 11.4334 1.18559 11.7331 1.82493 11.9757C3.37425 12.5644 5.42954 12.8997 7.63389 12.8997C9.83824 12.8997 11.8935 12.5644 13.4429 11.9757C13.7488 11.8615 14.043 11.7295 14.3215 11.5868C14.5607 11.4655 14.7843 11.3299 14.9961 11.1872C15.0549 11.148 15.1098 11.1052 15.1648 11.0659V12.3289ZM16.4199 12.3289V10.2632C17.1651 10.1133 17.8515 9.92423 18.4634 9.69232C19.1028 9.44972 19.699 9.15003 20.1853 8.78255V10.0455C20.1853 10.4201 19.9892 10.7948 19.6009 11.148C18.9616 11.7295 17.8359 12.2076 16.4121 12.518C16.416 12.4573 16.4199 12.3931 16.4199 12.3289ZM7.63389 16.3248C9.83824 16.3248 11.8935 15.9894 13.4429 15.4007C14.0822 15.1581 14.6784 14.8584 15.1648 14.4909V15.7539C15.1648 17.3309 11.7916 18.6081 7.63389 18.6081C3.47623 18.6081 0.103027 17.3309 0.103027 15.7539V14.4909C0.593318 14.8584 1.18559 15.1581 1.82493 15.4007C3.37425 15.9894 5.42954 16.3248 7.63389 16.3248Z" fill="white"/>
</svg>
