<svg width="25" height="22" viewBox="0 0 25 22" fill="none" xmlns="http://www.w3.org/2000/svg">
<path d="M11.4167 0C10.5279 0.75326 9.81503 1.66163 9.32061 2.67091C8.82619 3.68019 8.56033 4.76971 8.5389 5.87448C8.51747 6.97925 8.74091 8.07662 9.19588 9.10114C9.65085 10.1257 10.328 11.0563 11.187 11.8376C12.046 12.6189 13.0693 13.2349 14.1956 13.6487C15.322 14.0625 16.5285 14.2658 17.7432 14.2463C18.9578 14.2268 20.1556 13.985 21.2653 13.5353C22.3749 13.0855 23.3736 12.4372 24.2018 11.6288C23.8182 17.3719 18.5763 21.9202 12.1657 21.9202C5.50294 21.9202 0.103027 17.0087 0.103027 10.9497C0.103027 5.11886 5.1037 0.351057 11.4167 0Z" fill="white"/>
</svg>
