<svg width="34" height="34" viewBox="0 0 34 34" fill="none" xmlns="http://www.w3.org/2000/svg">
<path d="M26.296 2.1455L17 11.442C13.9015 8.3445 10.802 5.244 7.70299 2.1455C4.11799 -1.4395 -1.43901 4.1195 2.14299 7.7055C5.24249 10.802 8.34299 13.903 11.439 17.0015C8.34157 20.1014 5.24291 23.2001 2.14299 26.2975C-1.43901 29.8815 4.11849 35.439 7.70299 31.8575C10.802 28.7575 13.9008 25.6585 16.9995 22.5605L26.2955 31.8575C29.8805 35.4415 35.439 29.882 31.8555 26.2975C28.7565 23.1982 25.657 20.0992 22.557 17.0005C25.6563 13.9008 28.7558 10.8015 31.8555 7.7025C35.4395 4.1195 29.881 -1.4395 26.2955 2.1475" fill="#FFC107"/>
</svg>
