<svg width="25" height="23" viewBox="0 0 25 23" fill="none" xmlns="http://www.w3.org/2000/svg">
<path d="M19.1813 13.8643C18.7108 14.2923 18.7108 14.9862 19.1813 15.4142C19.6519 15.8422 20.4148 15.8422 20.8854 15.4142L24.3953 12.2216C24.4134 12.2051 24.431 12.1882 24.4479 12.171C24.6965 11.9702 24.8531 11.6774 24.8531 11.3512C24.8531 11.025 24.6965 10.7322 24.4479 10.5314C24.431 10.5142 24.4134 10.4973 24.3953 10.4809L20.8854 7.28817C20.4148 6.86016 19.6519 6.86016 19.1813 7.28817C18.7108 7.7162 18.7108 8.41015 19.1813 8.83818L20.7392 10.2552H14.0086C13.3432 10.2552 12.8037 10.7459 12.8037 11.3512C12.8037 11.9565 13.3432 12.4472 14.0086 12.4472H20.7392L19.1813 13.8643Z" fill="white"/>
<path d="M4.36921 0.391113C2.37281 0.391113 0.754395 1.86322 0.754395 3.67915V19.0233C0.754395 20.8393 2.37281 22.3114 4.36921 22.3114H15.8161C17.4798 22.3114 18.8285 21.0846 18.8285 19.5713V16.5382C18.65 16.4444 18.4821 16.3281 18.3294 16.1893C17.5409 15.472 17.413 14.3816 17.9457 13.5433H14.0087C12.6777 13.5433 11.5988 12.5619 11.5988 11.3512C11.5988 10.1406 12.6777 9.15921 14.0087 9.15921H17.9457C17.413 8.32092 17.5409 7.23039 18.3294 6.51321C18.4821 6.37435 18.65 6.25802 18.8285 6.16423V3.13114C18.8285 1.61787 17.4798 0.391113 15.8161 0.391113H4.36921Z" fill="white"/>
</svg>
