<svg width="21" height="19" viewBox="0 0 21 19" fill="none" xmlns="http://www.w3.org/2000/svg">
<path d="M18.1617 5.70152C18.2959 5.44587 18.3396 5.15867 18.287 4.87946C18.2343 4.60025 18.0877 4.34276 17.8675 4.14244L16.4467 2.84915C16.2264 2.64882 15.9434 2.51552 15.6364 2.46759C15.3294 2.41967 15.0137 2.45948 14.7326 2.58154L13.2516 1.23618C12.875 0.893733 12.3643 0.701355 11.8317 0.701355C11.2992 0.701355 10.7885 0.893733 10.4119 1.23618L7.57128 3.81912C7.38472 3.98875 7.23672 4.19016 7.13575 4.41183C7.03477 4.6335 6.9828 4.8711 6.9828 5.11104C6.9828 5.35099 7.03477 5.58859 7.13575 5.81026C7.23672 6.03193 7.38472 6.23334 7.57128 6.40297L13.9625 12.2155C14.149 12.3852 14.3704 12.5198 14.6141 12.6117C14.8578 12.7035 15.119 12.7508 15.3828 12.7508C15.6466 12.7508 15.9078 12.7035 16.1515 12.6117C16.3952 12.5198 16.6166 12.3852 16.8031 12.2155L19.6418 9.63164C20.0182 9.28908 20.2297 8.82454 20.2297 8.34017C20.2297 7.8558 20.0182 7.39126 19.6418 7.0487L18.1617 5.70152ZM11.1208 12.2155L7.57028 8.9859L4.02073 12.2155L7.57028 15.4442L11.1208 12.2155ZM6.15046 16.7365L2.60092 13.507L0.82564 15.1217C0.368371 15.5524 0.115348 16.1292 0.121067 16.7279C0.126787 17.3266 0.39079 17.8992 0.856218 18.3226C1.32165 18.746 1.95126 18.9861 2.60945 18.9913C3.26764 18.9965 3.90174 18.7663 4.37519 18.3504L6.15046 16.7365Z" fill="white"/>
</svg>
