<svg width="26" height="23" viewBox="0 0 26 23" fill="none" xmlns="http://www.w3.org/2000/svg">
<path d="M12.9159 0.195557C19.56 0.195557 24.9653 5.11227 24.9653 11.1557C24.9653 17.1992 19.56 22.1158 12.9159 22.1158C6.27173 22.1158 0.866566 17.1992 0.866566 11.1557C0.866566 5.11227 6.27173 0.195557 12.9159 0.195557ZM12.839 3.63977C10.3642 3.63977 8.35786 5.79454 8.35786 8.45357C8.35786 11.1122 10.3642 13.2677 12.839 13.2677C15.3137 13.2677 17.3198 11.1122 17.3198 8.45357C17.3198 5.79454 15.3137 3.63977 12.839 3.63977ZM12.9159 20.7852C15.8912 20.7852 18.5838 19.663 20.5091 17.8594C20.7821 17.6035 20.8686 17.2265 20.7308 16.8928C20.0717 15.2974 18.8368 13.9596 17.2585 13.0829C16.9177 12.8935 16.4814 12.9302 16.1849 13.1737C15.2563 13.9363 14.0984 14.3918 12.8391 14.3918C11.6041 14.3918 10.4665 13.9533 9.54739 13.217C9.2476 12.9768 8.809 12.9452 8.47113 13.139C6.9412 14.0163 5.74578 15.3316 5.10125 16.8932C4.9634 17.2271 5.05004 17.6036 5.3232 17.8596C7.24823 19.663 9.94081 20.7852 12.9159 20.7852Z" fill="white" stroke="white" stroke-width="0.118824"/>
</svg>
