<svg width="21" height="18" viewBox="0 0 21 18" fill="none" xmlns="http://www.w3.org/2000/svg">
<path fill-rule="evenodd" clip-rule="evenodd" d="M15.2168 6.75714C15.4046 6.93744 15.5551 7.15296 15.6595 7.3914C15.764 7.62985 15.8205 7.88654 15.8258 8.14682C15.8311 8.4071 15.785 8.66587 15.6902 8.90834C15.5955 9.15082 15.4539 9.37226 15.2736 9.56L13.0765 11.847C12.7883 12.1469 12.4131 12.3484 12.0041 12.4232C11.595 12.4981 11.1728 12.4423 10.7971 12.2639C10.4215 12.0855 10.1115 11.7935 9.91101 11.4291C9.71051 11.0648 9.62969 10.6467 9.67997 10.2339L8.89309 9.47821L4.18781 15.1355C3.99329 15.3691 3.75275 15.5601 3.48118 15.6967C3.20961 15.8333 2.91281 15.9126 2.60929 15.9295C2.30576 15.9464 2.00201 15.9006 1.71695 15.795C1.43188 15.6894 1.17162 15.5263 0.952353 15.3157C0.733091 15.1051 0.559532 14.8517 0.442487 14.5711C0.325442 14.2906 0.267416 13.9889 0.272028 13.6849C0.276638 13.381 0.343786 13.0812 0.469287 12.8044C0.594788 12.5275 0.775953 12.2794 1.0015 12.0756L6.46292 7.14447L5.67686 6.38959C5.26628 6.45676 4.84497 6.39303 4.47263 6.20742C4.10028 6.02182 3.79578 5.72376 3.60227 5.35546C3.40875 4.98717 3.33603 4.56732 3.39441 4.1554C3.45279 3.74347 3.63931 3.36037 3.92754 3.06035L6.12384 0.774114C6.41199 0.473881 6.78732 0.271955 7.19664 0.196956C7.60596 0.121957 8.02851 0.177691 8.40438 0.356258C8.78026 0.534824 9.0904 0.827164 9.29084 1.19184C9.49128 1.55652 9.57187 1.97504 9.52116 2.38807L13.5243 6.23155C13.8278 6.18204 14.1386 6.20383 14.4322 6.29519C14.7259 6.38655 14.9942 6.54498 15.216 6.75795M7.06049 5.52102L10.491 8.81544L12.139 7.10016L8.70769 3.80496L7.06049 5.52102ZM14.13 8.46186C14.1661 8.42432 14.1945 8.38003 14.2135 8.33153C14.2325 8.28303 14.2417 8.23126 14.2407 8.17918C14.2397 8.12711 14.2284 8.07574 14.2076 8.02802C14.1867 7.98029 14.1566 7.93715 14.1191 7.90104C14.0815 7.86494 14.0373 7.83658 13.9888 7.81759C13.9402 7.7986 13.8885 7.78935 13.8364 7.79037C13.7843 7.79139 13.733 7.80265 13.6852 7.82352C13.6375 7.84439 13.5944 7.87446 13.5583 7.912L11.3612 10.1998C11.3241 10.2372 11.2948 10.2815 11.275 10.3303C11.2552 10.3791 11.2453 10.4313 11.2459 10.4839C11.2465 10.5366 11.2576 10.5885 11.2785 10.6368C11.2994 10.6851 11.3298 10.7288 11.3677 10.7653C11.4057 10.8017 11.4505 10.8303 11.4997 10.8492C11.5488 10.8681 11.6012 10.8771 11.6538 10.8756C11.7064 10.8741 11.7582 10.8621 11.8061 10.8403C11.854 10.8186 11.8972 10.7875 11.933 10.7489L14.13 8.46186ZM7.83989 2.42052C7.877 2.38319 7.90631 2.33885 7.9261 2.29007C7.9459 2.2413 7.95578 2.18907 7.95517 2.13644C7.95456 2.0838 7.94348 2.03181 7.92256 1.98351C7.90165 1.93521 7.87132 1.89155 7.83336 1.85509C7.79539 1.81863 7.75055 1.7901 7.70143 1.77116C7.65232 1.75221 7.59993 1.74324 7.54732 1.74477C7.4947 1.74629 7.44292 1.75827 7.39498 1.78002C7.34705 1.80177 7.30393 1.83285 7.26813 1.87145L5.07107 4.15928C5.03396 4.19661 5.00465 4.24095 4.98486 4.28973C4.96507 4.3385 4.95518 4.39073 4.95579 4.44336C4.9564 4.496 4.96748 4.54798 4.9884 4.59629C5.00931 4.64459 5.03964 4.68825 5.0776 4.72471C5.11557 4.76117 5.16042 4.7897 5.20953 4.80864C5.25864 4.82758 5.31103 4.83656 5.36365 4.83503C5.41626 4.83351 5.46805 4.82153 5.51598 4.79978C5.56391 4.77802 5.60704 4.74695 5.64283 4.70835L7.83989 2.42052ZM2.96829 14.1213L7.61939 8.5302L7.46249 8.37875L2.06334 13.2523C2.0012 13.3107 1.95159 13.3811 1.91753 13.4593C1.88347 13.5375 1.86567 13.6218 1.86521 13.7071C1.86476 13.7923 1.88165 13.8768 1.91487 13.9553C1.94809 14.0339 1.99693 14.1048 2.05844 14.1639C2.11994 14.223 2.19282 14.2689 2.27264 14.2989C2.35246 14.3289 2.43755 14.3424 2.52274 14.3385C2.60792 14.3346 2.69142 14.3134 2.76816 14.2762C2.84489 14.239 2.91325 14.1866 2.96909 14.1221" fill="#505050"/>
<line x1="8.64697" y1="16.9554" x2="20.9999" y2="16.9554" stroke="#505050" stroke-width="0.677419"/>
<line x1="9.88232" y1="15.7202" x2="19.7647" y2="15.7202" stroke="#505050" stroke-width="0.677419"/>
</svg>
