<svg width="16" height="16" viewBox="0 0 16 16" fill="none" xmlns="http://www.w3.org/2000/svg">
<path fill-rule="evenodd" clip-rule="evenodd" d="M15.2166 6.75714C15.4044 6.93744 15.5548 7.15296 15.6593 7.3914C15.7638 7.62985 15.8203 7.88654 15.8255 8.14682C15.8308 8.4071 15.7848 8.66587 15.69 8.90834C15.5952 9.15082 15.4537 9.37226 15.2733 9.56L13.0762 11.847C12.7881 12.1469 12.4129 12.3484 12.0038 12.4232C11.5948 12.4981 11.1725 12.4423 10.7969 12.2639C10.4213 12.0855 10.1113 11.7935 9.91076 11.4291C9.71027 11.0648 9.62944 10.6467 9.67972 10.2339L8.89285 9.47821L4.18757 15.1355C3.99305 15.3691 3.75251 15.5601 3.48094 15.6967C3.20936 15.8333 2.91257 15.9126 2.60904 15.9295C2.30552 15.9464 2.00177 15.9006 1.7167 15.795C1.43164 15.6894 1.17137 15.5263 0.952109 15.3157C0.732846 15.1051 0.559288 14.8517 0.442243 14.5711C0.325198 14.2906 0.267172 13.9889 0.271783 13.6849C0.276394 13.381 0.343542 13.0812 0.469043 12.8044C0.594543 12.5275 0.775709 12.2794 1.00126 12.0756L6.46268 7.14447L5.67662 6.38959C5.26603 6.45676 4.84473 6.39303 4.47238 6.20742C4.10004 6.02182 3.79554 5.72376 3.60202 5.35546C3.40851 4.98717 3.33579 4.56732 3.39417 4.1554C3.45255 3.74347 3.63907 3.36037 3.9273 3.06035L6.1236 0.774114C6.41174 0.473881 6.78708 0.271955 7.1964 0.196956C7.60572 0.121957 8.02826 0.177691 8.40414 0.356258C8.78001 0.534824 9.09015 0.827164 9.2906 1.19184C9.49104 1.55652 9.57162 1.97504 9.52092 2.38807L13.524 6.23155C13.8275 6.18204 14.1384 6.20383 14.432 6.29519C14.7256 6.38655 14.994 6.54498 15.2158 6.75795M7.06025 5.52102L10.4908 8.81544L12.1388 7.10016L8.70744 3.80496L7.06025 5.52102ZM14.1298 8.46186C14.1659 8.42432 14.1943 8.38003 14.2132 8.33153C14.2322 8.28303 14.2415 8.23126 14.2405 8.17918C14.2394 8.12711 14.2282 8.07574 14.2073 8.02802C14.1864 7.98029 14.1564 7.93715 14.1188 7.90104C14.0813 7.86494 14.037 7.83658 13.9885 7.81759C13.94 7.7986 13.8882 7.78935 13.8362 7.79037C13.7841 7.79139 13.7327 7.80265 13.685 7.82352C13.6373 7.84439 13.5941 7.87446 13.558 7.912L11.361 10.1998C11.3238 10.2372 11.2945 10.2815 11.2747 10.3303C11.255 10.3791 11.2451 10.4313 11.2457 10.4839C11.2463 10.5366 11.2574 10.5885 11.2783 10.6368C11.2992 10.6851 11.3295 10.7288 11.3675 10.7653C11.4055 10.8017 11.4503 10.8303 11.4994 10.8492C11.5485 10.8681 11.6009 10.8771 11.6535 10.8756C11.7062 10.8741 11.7579 10.8621 11.8059 10.8403C11.8538 10.8186 11.8969 10.7875 11.9327 10.7489L14.1298 8.46186ZM7.83964 2.42052C7.87676 2.38319 7.90607 2.33885 7.92586 2.29007C7.94565 2.2413 7.95553 2.18907 7.95492 2.13644C7.95432 2.0838 7.94323 2.03181 7.92232 1.98351C7.9014 1.93521 7.87108 1.89155 7.83311 1.85509C7.79515 1.81863 7.7503 1.7901 7.70119 1.77116C7.65208 1.75221 7.59969 1.74324 7.54707 1.74477C7.49446 1.74629 7.44267 1.75827 7.39474 1.78002C7.3468 1.80177 7.30368 1.83285 7.26789 1.87145L5.07083 4.15928C5.03372 4.19661 5.00441 4.24095 4.98461 4.28973C4.96482 4.3385 4.95494 4.39073 4.95555 4.44336C4.95616 4.496 4.96724 4.54798 4.98815 4.59629C5.00907 4.64459 5.03939 4.68825 5.07736 4.72471C5.11532 4.76117 5.16017 4.7897 5.20928 4.80864C5.25839 4.82758 5.31079 4.83656 5.3634 4.83503C5.41602 4.83351 5.4678 4.82153 5.51574 4.79978C5.56367 4.77802 5.60679 4.74695 5.64259 4.70835L7.83964 2.42052ZM2.96804 14.1213L7.61915 8.5302L7.46225 8.37875L2.0631 13.2523C2.00096 13.3107 1.95135 13.3811 1.91729 13.4593C1.88323 13.5375 1.86543 13.6218 1.86497 13.7071C1.86451 13.7923 1.88141 13.8768 1.91462 13.9553C1.94784 14.0339 1.99669 14.1048 2.05819 14.1639C2.1197 14.223 2.19258 14.2689 2.2724 14.2989C2.35222 14.3289 2.43731 14.3424 2.52249 14.3385C2.60768 14.3346 2.69118 14.3134 2.76791 14.2762C2.84465 14.239 2.91301 14.1866 2.96885 14.1221" fill="#FFC107"/>
</svg>
