<svg width="21" height="21" viewBox="0 0 21 21" fill="none" xmlns="http://www.w3.org/2000/svg">
<path d="M20.1887 3.39807C20.1887 4.10804 19.6246 4.76278 18.6741 5.29131C17.5263 5.92633 15.8145 6.37598 13.8503 6.51008C13.7043 6.43908 13.5584 6.37203 13.4046 6.31287C11.8505 5.66207 9.78375 5.29131 7.56709 5.29131C7.23972 5.29131 6.92023 5.2992 6.60075 5.31497L6.55736 5.29131C5.6068 4.76278 5.04277 4.10804 5.04277 3.39807C5.04277 1.65472 8.43482 0.242676 12.6157 0.242676C16.7966 0.242676 20.1887 1.65472 20.1887 3.39807ZM6.33254 6.59685C6.73485 6.56924 7.149 6.55347 7.56709 6.55347C10.0204 6.55347 12.1976 7.03861 13.5821 7.79196C14.5602 8.32443 15.14 8.98707 15.14 9.70886C15.14 9.86663 15.1124 10.0205 15.0572 10.1703C14.8758 10.691 14.3867 11.1682 13.6767 11.5705C13.6728 11.5745 13.6649 11.5745 13.6609 11.5784C13.6491 11.5863 13.6373 11.5903 13.6254 11.5982C12.245 12.3633 10.0441 12.8603 7.56709 12.8603C5.21632 12.8603 3.11404 12.4146 1.72172 11.7125C1.64678 11.677 1.57578 11.6376 1.50479 11.5982C0.558168 11.0736 -0.00585938 10.4188 -0.00585938 9.70886C-0.00585938 8.33626 2.10037 7.16482 5.04277 6.7349C5.45692 6.67574 5.88684 6.62841 6.33254 6.59685ZM16.4022 9.70886C16.4022 8.84507 15.9841 8.13511 15.4516 7.60264C16.5679 7.42909 17.5894 7.15299 18.4571 6.79407C19.1001 6.52586 19.6996 6.19454 20.1887 5.78828V7.18455C20.1887 7.94578 19.5379 8.64786 18.4611 9.19217C17.8852 9.48404 17.1832 9.73253 16.3943 9.92185C16.3983 9.85085 16.4022 9.7838 16.4022 9.71281V9.70886ZM15.14 13.4953C15.14 14.2053 14.576 14.86 13.6254 15.3886C13.5545 15.428 13.4835 15.4635 13.4085 15.503C12.0201 16.205 9.91786 16.6507 7.56709 16.6507C5.0901 16.6507 2.88922 16.1538 1.50873 15.3886C0.558168 14.86 -0.00585938 14.2053 -0.00585938 13.4953V12.0991C0.487171 12.5053 1.08275 12.8366 1.72566 13.1049C3.28364 13.7557 5.35042 14.1264 7.56709 14.1264C9.78375 14.1264 11.8505 13.7557 13.4085 13.1049C13.7162 12.9786 14.012 12.8327 14.292 12.6749C14.5326 12.5408 14.7574 12.3909 14.9704 12.2332C15.0296 12.1898 15.0848 12.1425 15.14 12.0991V13.4953ZM16.4022 13.4953V11.2116C17.1516 11.046 17.8418 10.8369 18.4571 10.5805C19.1001 10.3123 19.6996 9.98102 20.1887 9.57476V10.971C20.1887 11.3852 19.9915 11.7993 19.601 12.1898C18.9581 12.8327 17.8261 13.3612 16.3943 13.7044C16.3983 13.6373 16.4022 13.5663 16.4022 13.4953ZM7.56709 17.9129C9.78375 17.9129 11.8505 17.5421 13.4085 16.8913C14.0514 16.6231 14.651 16.2918 15.14 15.8855V17.2818C15.14 19.0252 11.748 20.4372 7.56709 20.4372C3.38619 20.4372 -0.00585938 19.0252 -0.00585938 17.2818V15.8855C0.487171 16.2918 1.08275 16.6231 1.72566 16.8913C3.28364 17.5421 5.35042 17.9129 7.56709 17.9129Z" fill="#505050"/>
</svg>
