<svg width="25" height="25" viewBox="0 0 25 25" fill="none" xmlns="http://www.w3.org/2000/svg">
<circle cx="12" cy="12" r="9" fill="black"/>
<path d="M12.1094 0C5.41992 0 0 5.41992 0 12.1094C0 18.7988 5.41992 24.2188 12.1094 24.2188C18.7988 24.2188 24.2188 18.7988 24.2188 12.1094C24.2188 5.41992 18.7988 0 12.1094 0ZM13.5205 7.01172L9.83398 10.5469H18.75C19.3994 10.5469 19.9219 11.0693 19.9219 11.7188V12.5C19.9219 13.1494 19.3994 13.6719 18.75 13.6719H9.83398L13.5205 17.207C13.9941 17.6611 14.0039 18.418 13.54 18.8818L13.0029 19.4141C12.5439 19.873 11.8018 19.873 11.3477 19.4141L4.86816 12.9395C4.40918 12.4805 4.40918 11.7383 4.86816 11.2842L11.3477 4.7998C11.8066 4.34082 12.5488 4.34082 13.0029 4.7998L13.54 5.33203C14.0039 5.80078 13.9941 6.55762 13.5205 7.01172Z" fill="white"/>
</svg>
