<svg width="7" height="25" viewBox="0 0 7 25" fill="none" xmlns="http://www.w3.org/2000/svg">
<path d="M0.583496 12.5C0.583496 13.2736 0.890787 14.0155 1.43777 14.5624C1.98475 15.1094 2.72661 15.4167 3.50016 15.4167C4.27371 15.4167 5.01558 15.1094 5.56256 14.5624C6.10954 14.0155 6.41683 13.2736 6.41683 12.5C6.41683 11.7265 6.10954 10.9846 5.56256 10.4376C5.01558 9.89067 4.27371 9.58337 3.50016 9.58337C2.72661 9.58337 1.98475 9.89067 1.43777 10.4376C0.890787 10.9846 0.583496 11.7265 0.583496 12.5ZM0.583496 3.75004C0.583496 4.52359 0.890787 5.26545 1.43777 5.81244C1.98475 6.35942 2.72661 6.66671 3.50016 6.66671C4.27371 6.66671 5.01558 6.35942 5.56256 5.81244C6.10954 5.26545 6.41683 4.52359 6.41683 3.75004C6.41683 2.97649 6.10954 2.23463 5.56256 1.68765C5.01558 1.14066 4.27371 0.833374 3.50016 0.833374C2.72661 0.833374 1.98475 1.14066 1.43777 1.68765C0.890787 2.23463 0.583496 2.97649 0.583496 3.75004ZM0.583496 21.25C0.583496 22.0236 0.890787 22.7655 1.43777 23.3124C1.98475 23.8594 2.72661 24.1667 3.50016 24.1667C4.27371 24.1667 5.01558 23.8594 5.56256 23.3124C6.10954 22.7655 6.41683 22.0236 6.41683 21.25C6.41683 20.4765 6.10954 19.7346 5.56256 19.1876C5.01558 18.6407 4.27371 18.3334 3.50016 18.3334C2.72661 18.3334 1.98475 18.6407 1.43777 19.1876C0.890787 19.7346 0.583496 20.4765 0.583496 21.25Z" fill="#757575"/>
</svg>
